/* XPM */
static char *a791ae3aa8d24d26fdef998fb889a8e2fefNfXjZS1r4c24c[] = {
/* columns rows colors chars-per-pixel */
"60 60 9 1 ",
"  c None",
". c black",
"X c #F82810",
"o c #F92810",
"O c #480080",
"+ c #490080",
"@ c #480081",
"# c #490081",
"$ c white",
/* pixels */
"                                                            ",
"                                                            ",
"                                                            ",
"                                                            ",
"                                                            ",
"                                                            ",
"                                                            ",
"                                                            ",
"                                                   #.       ",
"                                                  O#.       ",
"                                #               #.#.#       ",
"              .#                .      .       #.#..        ",
"              #..#             ..#   #..      #.#@..        ",
"              #.#..#       .  @#.. #....    #.#@#...        ",
"               ..@..#     #.. @..............#@@@..#        ",
"               #.@#..##   ................#.#.@@...         ",
"                ..#@..###.#................#.#.#...         ",
"                ..@@........................#.#....         ",
"                #..#@@#...........................#         ",
"                 ..@@#............................          ",
"                 #..#@.....................#.....#          ",
"                 #........................#......#          ",
"                  #................#.....##.......          ",
"                  #...............##...##XX.......  #.      ",
"                   #...@#.........#@..#XXXX..........#      ",
"                   #...#@#....#....#@#XXoXX..........       ",
"                   #.#..X##....#...#@X.XXoX..#......        ",
"                   ##.#.XX#@#..@....XX.Xoo...$.......#      ",
"                ##@@@@..ooXX@##.............@$......#       ",
"                 #@@#.#..XXX.X.............#$$......##      ",
"                  O#@@.#................@##$$$........##    ",
"                   @###$............@#$$$$#$$#..........#   ",
"                 #.@@@@$@@.....@@@$$$@$$$$@$$.............  ",
"                ..#@@@#$$$#$$$#$$$$$$@$$$$@$@.............# ",
"               #@@@@@@@.$$@$$$@$$$$$$@$$$$@$............... ",
"              #.@@@#@@@@$$@$$$@$$$$$$@$$$$@@...............#",
"              .#@@@.@@@@.$@$$$@$$$$$$@$$$$#...........#.....",
"             #@@@#..@@@@#.#$$$@$$$$$$@$$$#...........#.#....",
"            #.@@....@@@@.#..$$#$$$$$$@$$@.............#.#..#",
"            O.#.....@@@@#.#.@.@@$$$$$@@@............  ..... ",
"            #.......#@@@@#.#.#.#....................   . .  ",
"             #...#  .@@@@.#.#.#.....................        ",
"              . #   .#@@@@.#.#......................        ",
"                    ..@@@@#.#.#....................#        ",
"                     .@#@#.#.#.....................#        ",
"                     .@.@.#.#......................         ",
"                    ##.#...........................#        ",
"                    #.#.............................        ",
"                   ##@@.............................#       ",
"                   #@@...............................       ",
"                   ##................................       ",
"                   #.........................#......#       ",
"                    #.........##...........#.......#        ",
"                    #.......#    #.....#   ........         ",
"                     ......#       ###      .##....         ",
"                    .......                  .#..#..        ",
"                                                            ",
"                                                            ",
"                                                            ",
"                                                            "
};
