/* XPM */
static char *_f7112ed636d4bd1e665401676d91453btqZm26viIM2e0NM[] = {
/* columns rows colors chars-per-pixel */
"60 60 8 1 ",
"  c None",
". c black",
"X c #F92810",
"o c #480080",
"O c #490080",
"+ c #480081",
"@ c #490081",
"# c white",
/* pixels */
"                                                            ",
"                                                            ",
"                                                            ",
"                                                            ",
"                                                            ",
"                                                            ",
"                                                            ",
"                                                            ",
"                                                   o.       ",
"                                                  o@.       ",
"                                o               o.@.o       ",
"              .o                .      .       o.@..        ",
"              o..o             ..@   @..      o.@@..        ",
"              o.@..@       .  oo.. o....    o.@@@...        ",
"               ..@..o     o.. o..............@+++..o        ",
"               o.@@..oo   ................@.@.++...         ",
"                ..@+..@@+.@................@.@.@...         ",
"                ..++........................@.@....         ",
"                o..@++@...........................o         ",
"                 ..++@............................          ",
"                 @..@@.....................@.....o          ",
"                 o........................@......@          ",
"                  o................+.....++.......          ",
"                  @...............@@...+@XX.......  o.      ",
"                   @...+@.........o@..@XXXX..........o      ",
"                   @...@+@....@....o+@XXXXX..........       ",
"                   @.@..X++....@...o+X.XXXX..o......        ",
"                   o@.@.XX++@..+....XX.XXX...#.......@      ",
"                o@++++..XXXX+@+.............o#......o       ",
"                 @++@.@..XXX.X.............o##......@       ",
"                  o@++.o................ooo###.......o      ",
"                   +@oo#............oo####o##@.........     ",
"                 @++++o#oo.....ooo###o####o##...........    ",
"                  .@++o###o###o######o####o#o............   ",
"                 .+++++.##o###o######o####o#.............o  ",
"                .+++++++##o###o######o####oo..............  ",
"               o+++@++++.#o###o######o####o...........@.... ",
"               .+++.++++o.o###o######o###o...........@.@... ",
"              o@++..++++.o..##o######o##o.............@.@..o",
"              .@@...++++o.o.o.oo#####ooo.............@.o.@..",
"             o@@....@@+++@.@.@.@....................@o..o...",
"             .@......@+++.@.@.@.....................  o....@",
"             .....@ .@++++.@.@......................   .  . ",
"             @..o.  ..++++@.@.@....................@        ",
"              .  o   .+@+@.@.@.....................o        ",
"                     .+.+.@.@......................         ",
"                    o@.@...........................@        ",
"                    o.@.............................        ",
"                   o@@+.............................@       ",
"                   o@@...............................       ",
"                   o@................................       ",
"                   o.........................o......o       ",
"                    @.........@@...........@.......o        ",
"                    @.......@    o.....o   ........         ",
"                     ......o       ooo      .oo....         ",
"                    .......                  .o..@..        ",
"                                                            ",
"                                                            ",
"                                                            ",
"                                                            "
};
