/* XPM */
static char *result[] = {
/* columns rows colors chars-per-pixel */
"60 60 10 1 ",
"  c black",
". c #F82810",
"X c #FB2810",
"o c #480080",
"O c #4B0080",
"+ c #480083",
"@ c #490083",
"# c #4B0083",
"$ c white",
"% c None",
/* pixels */
"%%%%%%%%%%%%%%%%%%%%%%%%%%%%%%%%%%%%%%%%%%%%%%%%%%%%%%%%%%%%",
"%%%%%%%%%%%%%%%%%%%%%%%%%%%%%%%%%%%%%%%%%%%%%%%%%%%%%%%%%%%%",
"%%%%%%%%%%%%%%%%%%%%%%%%%%%%%%%%%%%%%%%%%%%%%%%%%%%%%%%%%%%%",
"%%%%%%%%%%%%%%%%%%%%%%%%%%%%%%%%%%%%%%%%%%%%%%%%%%%%%%%%%%%%",
"%%%%%%%%%%%%%%%%%%%%%%%%%%%%%%%%%%%%%%%%%%%%%%%%%%%%%%%%%%%%",
"%%%%%%%%%%%%%%%%%%%%%%%%%%%%%%%%%%%%%%%%%%%%%%%%%%%%%%%%%%%%",
"%%%%%%%%%%%%%%%%%%%%%%%%%%%%%%%%%%%%%%%%%%%%%%%%%%%%%%%%%%%%",
"%%%%%%%%%%%%%%%%%%%%%%%%%%%%%%%%%%%%%%%%%%%%%%%%%%%%%%%%%%%%",
"%%%%%%%%%%%%%%%%%%%%%%%%%%%%%%%%%%%%%%%%%%%%%%%%%%%%%%%%%%%%",
"%%%%%%%%%%%%%%%%%%%%%%%%%%%%%%%%%%%%%%%%%%%%%%%%%%%%%%%%%%%%",
"%%%%%%%%%%%%%%%%%%%%%%%%%%%%%%%%O%%%%%%%%%%%%%%%%%%%+  %%%%%",
"%%%%%%%%%%%%%%%%%%%%%%%%%%%%%%%% %%%%%% %%%%%%%%%%O   #%%%%%",
"%%%%%%%%%%%%%%%%%%%%%%%%%%%%%%%  O%%%O  %%%%%%%O  ++  %%%%%%",
"%%%%%%%%%%%%%%%%%%%%%%%%%%% %%++  %O    %%%%O   +++  %%%%%%%",
"%%%%%%%%%%%%%O #%%%%%%%%%%O  %+              ++++   #%%%%%%%",
"%%%%%%%%%%%%%O    O%%%%%%%                + + ++    %%%%%%%%",
"%%%%%%%%%%%%%%# ++    +++ +                + + +   O%%%%%%%%",
"%%%%%%%%%%%%%%%  +++                        + +    #%%%%%%%%",
"%%%%%%%%%%%%%%%#  +++++                            %%%%%%%%%",
"%%%%%%%%%%%%%%%%O  +++                            O%%%%%%%%%",
"%%%%%%%%%%%%%%%%%O  ++                     +      %%%%%%%%%%",
"%%%%%%%%%%%%%%%%%#                        +      O%%%%%%%%%%",
"%%%%%%%%%%%%%%%%%%o                +     ++       %%%%%%%%%%",
"%%%%%%%%%%%%%%%%%%o               o+   ++.X       %%+ %%%%%%",
"%%%%%%%%%%%%%%%%%%%#   ++         +o  +XX.X          #%%%%%%",
"%%%%%%%%%%%%%%%%%%%#   ++++    +   oo+XX..X          %%%%%%%",
"%%%%%%%%%%%%%%%%%%%# +  XX+++  +   ++X ...X  +      %%%%%%%%",
"%%%%%%%%%%%%%%%%%%%O+ + XXXXX++     XX XXX   +       O%%%%%%",
"%%%%%%%%%%%%%%%%++++++  XX.X X+             +$      O%%%%%%%",
"%%%%%%%%%%%%%%%%%O+++ +  XXX X             +$$      o%%%%%%%",
"%%%%%%%%%%%%%%%%%%O+++ +                +++$$$       O%%%%%%",
"%%%%%%%%%%%%%%%%%%%++++$           +++$$$$+$$+         %%%%%",
"%%%%%%%%%%%%%%%%%++++++$++     ++$$$$+$$$$+$$           %%%%",
"%%%%%%%%%%%%%%%%%% ++++$$$+$$$+$$$$$$+$$$$+$+            %%%",
"%%%%%%%%%%%%%%%%% +++++ $$+$$$+$$$$$$+$$$$++             +%%",
"%%%%%%%%%%%%%%%% +++++++$$+$$$+$$$$$$+$$$$+               %%",
"%%%%%%%%%%%%%%%O++++++++ $+$$$+$$$$$$+$$+             +    %",
"%%%%%%%%%%%%%%% +++ +++++ +$$$+$$$$$$+++             + +   %",
"%%%%%%%%%%%%%%O+++  ++++ +    ++++++                  + +  O",
"%%%%%%%%%%%%%% ++   +++++ + +                        + + +  ",
"%%%%%%%%%%%%%O++    ++++++ + + +                    O+  +   ",
"%%%%%%%%%%%%% +      ++++ + + +                     %%O    #",
"%%%%%%%%%%%%%     O% +++++ + +                      %%% %% %",
"%%%%%%%%%%%%%#  # %%  +++++ + +                    O%%%%%%%%",
"%%%%%%%%%%%%%% %%O%%% ++++ + +                     @%%%%%%%%",
"%%%%%%%%%%%%%%%%%%%%% + + + +                      %%%%%%%%%",
"%%%%%%%%%%%%%%%%%%%%%O +                          o%%%%%%%%%",
"%%%%%%%%%%%%%%%%%%%%% +                            O%%%%%%%%",
"%%%%%%%%%%%%%%%%%%%%%O%+                          +%%%%%%%%%",
"%%%%%%%%%%%%%%%%%%%%O%  +                      + +%O%%%%%%%%",
"%%%%%%%%%%%%%%%%%%%%%+%+ + +                  + +%+%%%%%%%%%",
"%%%%%%%%%%%%%%%%%%%%O%+%+ +                  +%+%+%O%%%%%%%%",
"%%%%%%%%%%%%%%%%%%%%%O%+%+%+  O#           + %+%+%#%%%%%%%%%",
"%%%%%%%%%%%%%%%%%%%%%%O%+%+% +%%%#      %%% %O%+%O%%%%%%%%%%",
"%%%%%%%%%%%%%%%%%%%%%O%O%O%O%%%%%%#   O%%%%%O%O%O%O%%%%%%%%%",
"%%%%%%%%%%%%%%%%%%%%O%O%O%O%%%%%%%% o%%%%%%%%O%O%O%O%%%%%%%%",
"%%%%%%%%%%%%%%%%%%%%%%%%%%%%%%%%%%%%%%%%%%%%%%%%%%%%%%%%%%%%",
"%%%%%%%%%%%%%%%%%%%%%%%%%%%%%%%%%%%%%%%%%%%%%%%%%%%%%%%%%%%%",
"%%%%%%%%%%%%%%%%%%%%%%%%%%%%%%%%%%%%%%%%%%%%%%%%%%%%%%%%%%%%",
"%%%%%%%%%%%%%%%%%%%%%%%%%%%%%%%%%%%%%%%%%%%%%%%%%%%%%%%%%%%%"
};
