/* XPM */
static char *_513c044d3e64dded00a29ffcacea68az0XbmI8FMBF4ZFDR[] = {
/* columns rows colors chars-per-pixel */
"60 60 5 1 ",
"  c None",
". c black",
"X c #F82810",
"o c #480080",
"O c white",
/* pixels */
"                                                            ",
"                                                            ",
"                                                            ",
"                                                            ",
"                                                            ",
"                                                            ",
"                                                            ",
"                                                            ",
"                                                            ",
"                                                            ",
"                                o                   o..     ",
"                                .      .          o...o     ",
"                               ..o   o..       o..oo..      ",
"                           .  oo.. o....    o...ooo..       ",
"             o.o          o.. o..............oooo...o       ",
"             o....o       ................o.o.oo....        ",
"              o.oo....ooo.o................o.o.o...o        ",
"               ..ooo........................o.o....o        ",
"               o..ooooo............................         ",
"                o..ooo............................o         ",
"                 o..oo.....................o......          ",
"                 o........................o......o          ",
"                  o................o.....oo.......          ",
"                  o...............oo...ooXX.......  o.      ",
"                   o...oo.........oo..oXXXX..........o      ",
"                   o...oooo....o...oooXXXXX..........       ",
"                   o.o..XXooo..o...ooX.XXXX..o......        ",
"                   oo.o.XXXXXoo.....XX.XXX...o.......o      ",
"                oooooo..XXXX.Xo.............oO......o       ",
"                 oooo.o..XXX.X.............oOO......o       ",
"                  oooo.o................oooOOO.......o      ",
"                   ooooO...........oooOOOOoOOo.........     ",
"                 ooooooOoo.....ooOOOOoOOOOoOO...........    ",
"                  .ooooOOOoOOOoOOOOOOoOOOOoOo............   ",
"                 .ooooo.OOoOOOoOOOOOOoOOOOoo.............o  ",
"                .oooooooOOoOOOoOOOOOOoOOOOo...............  ",
"               ooooooooo.OoOOOoOOOOOOoOOo.............o.... ",
"               .ooo.ooooo.oOOOoOOOOOOooo.............o.o... ",
"              oooo..oooo.o....oooooo..................o.o..o",
"              .oo...ooooo.o.o........................o.o.o..",
"             ooo....oooooo.o.o.o....................oo..o...",
"             .o......oooo.o.o.o.....................  o....o",
"             .....o .ooooo.o.o......................   .  . ",
"             o..o.  ..ooooo.o.o....................o        ",
"              .  o   .oooo.o.o.....................o        ",
"                     .o.o.o.o......................         ",
"                    oo.o...........................o        ",
"                    o.o.............................        ",
"                   oooo.............................o       ",
"                   ooo...............................       ",
"                   oo................................       ",
"                   o.........................o......o       ",
"                    o.........oo...........o.......o        ",
"                    o.......o    o.....o   ........         ",
"                     ......o       ooo      .oo....         ",
"                    .......                  .o..o..        ",
"                                                            ",
"                                                            ",
"                                                            ",
"                                                            "
};
