/* XPM */
static char *_6aa0db5c1af4c6cc248e90a873db204GOrhSLYp9UQlK6W0[] = {
/* columns rows colors chars-per-pixel */
"60 60 9 1 ",
"  c None",
". c black",
"X c #F82810",
"o c #F92810",
"O c #480080",
"+ c #490080",
"@ c #480081",
"# c #490081",
"$ c white",
/* pixels */
"                                                            ",
"                                                            ",
"                                                            ",
"                                                            ",
"                                                            ",
"                                                            ",
"                                                            ",
"                                                            ",
"                                                            ",
"                                                            ",
"                                +                   +..     ",
"                                .      .          +...#     ",
"                               ..+   +..       +..@@..      ",
"                           .  @+.. +....    +...@##..       ",
"             +.+          +.. @..............#@@@...+       ",
"             +....+       ................#.#.@@....        ",
"              #.+@....##@.#................#.#.#...#        ",
"               ..+@+........................#.#....+        ",
"               #..@@@@#............................         ",
"                +..@@#............................#         ",
"                 #..#@.....................#......          ",
"                 #........................#......+          ",
"                  +................#.....##.......          ",
"                  #...............##...##XX.......  +.      ",
"                   +...@#.........+@..#XXXX..........#      ",
"                   +...#@##....#...+@+XXXXX..........       ",
"                   +.#..XX###..#...+@X.XXXX..+......        ",
"                   +#.#.XXXXX@#.....XX.Xoo...$.......#      ",
"                +#@@@@..ooXX.X#.............@$......#       ",
"                 +@@#.#..oXX.X.............+$$......+#      ",
"                  +@@@.+................@++$$$........+#    ",
"                   @#++$...........@@+$$$$+$$#..........+   ",
"                 +.@@@@$@@.....@@@$$$@$$$$@$$.............  ",
"                ..#@@@+$$$+$$$+$$$$$$@$$$$@$@.............+ ",
"               +@@@@@@@.$$@$$$@$$$$$$@$$$$@$............... ",
"              +.@@@#@@@@$$@$$$@$$$$$$@$$$$@@...............+",
"              .#@@@.@@@@.$@$$$@$$$$$$@$$$$+...........#.....",
"             +@@@#..@@@@+.+$$$@$$$$$$@$$$+...........#.#....",
"            +.@@....@@@@.+..$$+$$$$$$@$$@.............#.#..#",
"            +.#.....@@@@+.+.@.@@$$$$$@@@............  ..... ",
"            #.......#@@@@#.#.#.#....................   . .  ",
"             +...+  .@@@@.#.#.#.....................        ",
"              . #   .#@@@@.#.#......................        ",
"                    ..@@@@#.#.#....................#        ",
"                     .@#@#.#.#.....................+        ",
"                     .@.@.#.#......................         ",
"                     #.#..........................+         ",
"                     .#............................#        ",
"                    #@@@............................        ",
"                    @@..............................        ",
"                    @#..............................        ",
"                    .........................+......        ",
"                    #.........#+...........+.......+        ",
"                     ........#   +......   ........         ",
"                     .......      +...+     .++....         ",
"                    .......        .+        .+..+..        ",
"                                                            ",
"                                                            ",
"                                                            ",
"                                                            "
};
