/* XPM */
static char *result[] = {
/* columns rows colors chars-per-pixel */
"60 60 10 1 ",
"  c black",
". c #F82810",
"X c #FA2810",
"o c #480080",
"O c #4A0080",
"+ c #480082",
"@ c #490082",
"# c #4A0082",
"$ c white",
"% c None",
/* pixels */
"%%%%%%%%%%%%%%%%%%%%%%%%%%%%%%%%%%%%%%%%%%%%%%%%%%%%%%%%%%%%",
"%%%%%%%%%%%%%%%%%%%%%%%%%%%%%%%%%%%%%%%%%%%%%%%%%%%%%%%%%%%%",
"%%%%%%%%%%%%%%%%%%%%%%%%%%%%%%%%%%%%%%%%%%%%%%%%%%%%%%%%%%%%",
"%%%%%%%%%%%%%%%%%%%%%%%%%%%%%%%%%%%%%%%%%%%%%%%%%%%%%%%%%%%%",
"%%%%%%%%%%%%%%%%%%%%%%%%%%%%%%%%%%%%%%%%%%%%%%%%%%%%%%%%%%%%",
"%%%%%%%%%%%%%%%%%%%%%%%%%%%%%%%%%%%%%%%%%%%%%%%%%%%%%%%%%%%%",
"%%%%%%%%%%%%%%%%%%%%%%%%%%%%%%%%%%%%%%%%%%%%%%%%%%%%%%%%%%%%",
"%%%%%%%%%%%%%%%%%%%%%%%%%%%%%%%%%%%%%%%%%%%%%%%%%%%%%%%%%%%%",
"%%%%%%%%%%%%%%%%%%%%%%%%%%%%%%%%%%%%%%%%%%%%%%%%%%%%%%%%%%%%",
"%%%%%%%%%%%%%%%%%%%%%%%%%%%%%%%%%%%%%%%%%%%%%%%%%%%%%%%%%%%%",
"%%%%%%%%%%%%%%%%%%%%%%%%%%%%%%%%O%%%%%%%%%%%%%%%%%%%+  %%%%%",
"%%%%%%%%%%%%%%%%%%%%%%%%%%%%%%%% %%%%%% %%%%%%%%%%O   #%%%%%",
"%%%%%%%%%%%%%%%%%%%%%%%%%%%%%%%  O%%%O  %%%%%%%O  ++  %%%%%%",
"%%%%%%%%%%%%%%%%%%%%%%%%%%% %%++  %O    %%%%O   +++  %%%%%%%",
"%%%%%%%%%%%%%O #%%%%%%%%%%O  %+              ++++   O%%%%%%%",
"%%%%%%%%%%%%%O    O%%%%%%%                + + ++    %%%%%%%%",
"%%%%%%%%%%%%%%# ++    +++ +                + + +   O%%%%%%%%",
"%%%%%%%%%%%%%%%  +++                        + +    O%%%%%%%%",
"%%%%%%%%%%%%%%%#  +++++                            %%%%%%%%%",
"%%%%%%%%%%%%%%%%O  +++                            +%%%%%%%%%",
"%%%%%%%%%%%%%%%%%O  ++                     +      %%%%%%%%%%",
"%%%%%%%%%%%%%%%%%#                        +      +%%%%%%%%%%",
"%%%%%%%%%%%%%%%%%%o                +     o+       %%%%%%%%%%",
"%%%%%%%%%%%%%%%%%%o               o+   o+.X       %%+ %%%%%%",
"%%%%%%%%%%%%%%%%%%%#   ++         oo  +...X          o%%%%%%",
"%%%%%%%%%%%%%%%%%%%O   ++++    +   oo+X...X          %%%%%%%",
"%%%%%%%%%%%%%%%%%%%# +  XX+++  +   o+X ...X  +      %%%%%%%%",
"%%%%%%%%%%%%%%%%%%%O+ + X...X++     XX X.X   +       O%%%%%%",
"%%%%%%%%%%%%%%%%++++++  XX.X X+             +$      O%%%%%%%",
"%%%%%%%%%%%%%%%%%O+++ +  X.X X             +$$      +%%%%%%%",
"%%%%%%%%%%%%%%%%%%O+++ +                +++$$$       +%%%%%%",
"%%%%%%%%%%%%%%%%%%%++++$           +++$$$$+$$+         %%%%%",
"%%%%%%%%%%%%%%%%%++++++$++     ++$$$$+$$$$+$$           %%%%",
"%%%%%%%%%%%%%%%%%% ++++$$$+$$$+$$$$$$+$$$$+$+            %%%",
"%%%%%%%%%%%%%%%%% +++++ $$+$$$+$$$$$$+$$$$++             +%%",
"%%%%%%%%%%%%%%%% +++++++$$+$$$+$$$$$$+$$$$+               %%",
"%%%%%%%%%%%%%%%O++++++++ $+$$$+$$$$$$+$$+             +    %",
"%%%%%%%%%%%%%%% +++ +++++ +$$$+$$$$$$+++             + +   %",
"%%%%%%%%%%%%%%O+++  ++++ +    ++++++                  + +  O",
"%%%%%%%%%%%%%% ++   +++++ + +                        + + +  ",
"%%%%%%%%%%%%%O++    ++++++ + + +                    #+  +   ",
"%%%%%%%%%%%%% +      ++++ + + +                     %%#    +",
"%%%%%%%%%%%%%     o% +++++ + +                      %%% %% %",
"%%%%%%%%%%%%%#  O %%  +++++ + +                    +%%%%%%%%",
"%%%%%%%%%%%%%% %%O%%% ++++ + +                     O%%%%%%%%",
"%%%%%%%%%%%%%%%%%%%%% + + + +                      %%%%%%%%%",
"%%%%%%%%%%%%%%%%%%%%%O +                          O%%%%%%%%%",
"%%%%%%%%%%%%%%%%%%%%% O                            #%%%%%%%%",
"%%%%%%%%%%%%%%%%%%%%%% %     %              O% % %O%%%%%%%%%",
"%%%%%%%%%%%%%%%%%%%%%%%O%O% % % %     %   %#%O%O%O%%%%%%%%%%",
"%%%%%%%%%%%%%%%%%%%%%%%%O%O%O%O%O%#%o% % %#%#%O%%%%%%%%%%%%%",
"%%%%%%%%%%%%%%%%%%%%%%O%%%%%%O%#%o%@%o%O%O%#%%%%%O%O%%%%%%%%",
"%%%%%%%%%%%%%%%%%%%%%O%O%O%%O%#%O%#%%%%%%%O%%%%%O%#%%%%%%%%%",
"%%%%%%%%%%%%%%%%%%%%%%o%O%%%%o%%%#%#%O%%%%%o%%%%%%%%%%%%%%%%",
"%%%%%%%%%%%%%%%%%%%%%%%%%%%%%%%%%%%%#%O%%%%%%%%%%%O%%%%%%%%%",
"%%%%%%%%%%%%%%%%%%%%#%#%%%%%%%%%%%%%%%%%%%%%%+%%%#%+%%%%%%%%",
"%%%%%%%%%%%%%%%%%%%%%%%%%%%%%%%%%%%%%%%%%%%%%%%%%%%%%%%%%%%%",
"%%%%%%%%%%%%%%%%%%%%%%%%%%%%%%%%%%%%%%%%%%%%%%%%%%%%%%%%%%%%",
"%%%%%%%%%%%%%%%%%%%%%%%%%%%%%%%%%%%%%%%%%%%%%%%%%%%%%%%%%%%%",
"%%%%%%%%%%%%%%%%%%%%%%%%%%%%%%%%%%%%%%%%%%%%%%%%%%%%%%%%%%%%"
};
